<svg width="60" height="60" viewBox="0 0 60 60" fill="none" xmlns="http://www.w3.org/2000/svg">
<path d="M0 29.5886C0 13.2473 13.2473 0 29.5886 0C45.9299 0 59.1772 13.2473 59.1772 29.5886C59.1772 45.9299 45.9299 59.1772 29.5886 59.1772C13.2473 59.1772 0 45.9299 0 29.5886Z" fill="#FFAC33"/>
<path d="M29.519 8C17.6405 8 8 17.6405 8 29.519C8 41.3975 17.6405 51.038 29.519 51.038C41.3975 51.038 51.038 41.3975 51.038 29.519C51.038 17.6405 41.3975 8 29.519 8ZM29.519 46.7342C20.0291 46.7342 12.3038 39.0089 12.3038 29.519C12.3038 20.0291 20.0291 12.3038 29.519 12.3038C39.0089 12.3038 46.7342 20.0291 46.7342 29.519C46.7342 39.0089 39.0089 46.7342 29.519 46.7342ZM17.6835 41.3544L33.8443 33.8443L41.3544 17.6835L25.1937 25.1937L17.6835 41.3544ZM29.519 27.1519C30.8316 27.1519 31.8861 28.2063 31.8861 29.519C31.8861 30.8316 30.8316 31.8861 29.519 31.8861C28.2063 31.8861 27.1519 30.8316 27.1519 29.519C27.1519 28.2063 28.2063 27.1519 29.519 27.1519Z" fill="white"/>
</svg>
