<svg width="30" height="30" viewBox="0 0 30 30" fill="none" xmlns="http://www.w3.org/2000/svg">
<path d="M2.57493 18.3491C2.66106 18.6647 2.8675 18.934 3.14993 19.0991L5.53743 20.4866V23.2366C5.53743 23.5681 5.66912 23.886 5.90354 24.1205C6.13796 24.3549 6.45591 24.4866 6.78743 24.4866H9.53743L10.9249 26.8741C11.034 27.063 11.1906 27.2201 11.3792 27.3297C11.5678 27.4394 11.7818 27.4978 11.9999 27.4991C12.2243 27.499 12.4445 27.4386 12.6374 27.3241L15.0124 25.9491L17.3999 27.3241C17.5419 27.4072 17.6988 27.4616 17.8618 27.484C18.0247 27.5064 18.1905 27.4964 18.3496 27.4546C18.5087 27.4128 18.658 27.34 18.7889 27.2403C18.9198 27.1407 19.0297 27.0163 19.1124 26.8741L20.4874 24.4866H23.2374C23.569 24.4866 23.8869 24.3549 24.1213 24.1205C24.3557 23.886 24.4874 23.5681 24.4874 23.2366V20.4866L26.8749 19.0991C27.1608 18.9342 27.3699 18.6629 27.4566 18.3444C27.5432 18.0259 27.5004 17.6861 27.3374 17.3991L25.9499 14.9991L27.3374 12.6116C27.5004 12.3246 27.5432 11.9847 27.4566 11.6662C27.3699 11.3478 27.1608 11.0765 26.8749 10.9116L24.4874 9.53657V6.78657C24.4874 6.45505 24.3557 6.13711 24.1213 5.90269C23.8869 5.66827 23.569 5.53657 23.2374 5.53657H20.4874L19.1124 3.14907C18.9444 2.86404 18.6702 2.65727 18.3499 2.57407C18.1911 2.5314 18.0255 2.52048 17.8625 2.54193C17.6995 2.56338 17.5423 2.61678 17.3999 2.69907L14.9999 4.07407L12.6249 2.69907C12.3394 2.53506 12.0007 2.49032 11.6824 2.57458C11.3641 2.65884 11.0919 2.86528 10.9249 3.14907L9.53743 5.53657H6.78743C6.45591 5.53657 6.13796 5.66827 5.90354 5.90269C5.66912 6.13711 5.53743 6.45505 5.53743 6.78657V9.53657L3.16243 10.9116C3.01919 10.9932 2.89353 11.1024 2.79267 11.2329C2.69182 11.3633 2.61776 11.5124 2.57478 11.6716C2.53179 11.8307 2.52071 11.9969 2.54219 12.1603C2.56367 12.3238 2.61728 12.4814 2.69993 12.6241L4.07493 14.9991L2.69993 17.3866C2.61597 17.5306 2.56166 17.6899 2.5402 17.8552C2.51873 18.0205 2.53054 18.1884 2.57493 18.3491ZM6.59993 14.3866L5.48743 12.4991L7.42493 11.3741C7.61152 11.2634 7.76612 11.1061 7.87351 10.9177C7.9809 10.7292 8.03739 10.516 8.03743 10.2991V8.03657H10.2624C10.4827 8.03745 10.6993 7.9801 10.8902 7.87035C11.0812 7.7606 11.2398 7.60233 11.3499 7.41157L12.4999 5.48657L14.4249 6.59907C14.615 6.70878 14.8305 6.76654 15.0499 6.76654C15.2694 6.76654 15.4849 6.70878 15.6749 6.59907L17.6124 5.48657L18.7499 7.41157C18.8601 7.60233 19.0186 7.7606 19.2096 7.87035C19.4006 7.9801 19.6172 8.03745 19.8374 8.03657H22.0499V10.2616C22.0512 10.4797 22.1096 10.6937 22.2193 10.8823C22.3289 11.0709 22.486 11.2275 22.6749 11.3366L24.5999 12.4616L23.4874 14.3866C23.3777 14.5766 23.32 14.7922 23.32 15.0116C23.32 15.231 23.3777 15.4465 23.4874 15.6366L24.5999 17.5616L22.6749 18.6866C22.486 18.7956 22.3289 18.9523 22.2193 19.1408C22.1096 19.3294 22.0512 19.5434 22.0499 19.7616V21.9866H19.7624C19.5443 21.9879 19.3303 22.0463 19.1417 22.1559C18.9531 22.2656 18.7965 22.4226 18.6874 22.6116L17.5749 24.5366L15.6374 23.4241C15.4474 23.3144 15.2319 23.2566 15.0124 23.2566C14.793 23.2566 14.5775 23.3144 14.3874 23.4241L12.4999 24.5366L11.3874 22.6116C11.2773 22.4208 11.1187 22.2626 10.9277 22.1528C10.7368 22.043 10.5202 21.9857 10.2999 21.9866H8.03743V19.7616C8.02691 19.5553 7.96546 19.3549 7.85858 19.1783C7.7517 19.0016 7.60271 18.8541 7.42493 18.7491L5.48743 17.6241L6.59993 15.6991C6.72161 15.5018 6.78605 15.2746 6.78605 15.0428C6.78605 14.811 6.72161 14.5838 6.59993 14.3866Z" fill="#7F7F7F" fill-opacity="0.968627"/>
</svg>
