<svg width="22" height="20" viewBox="0 0 22 20" fill="none" xmlns="http://www.w3.org/2000/svg">
<path d="M7.57067 0.945678C8.60248 1.32106 9.66463 0.9168 10.6661 0.19491C11.0303 -0.0649701 11.4855 -0.0649701 11.8496 0.19491C12.8511 0.945676 13.9133 1.20556 15.1575 0.9168C15.6734 0.801298 16.0679 1.06118 16.341 1.49431C16.3714 1.52319 16.4017 1.55206 16.4321 1.60982C16.8873 2.59159 17.6763 3.14022 18.7688 3.37123C19.4061 3.48673 19.7096 3.91986 19.7399 4.52625C19.7399 4.61288 19.7703 4.67063 19.7703 4.75726C19.7399 5.68127 20.1041 6.40316 20.8931 6.9518C21.5911 7.47156 21.7125 8.10682 21.318 8.82871C20.8931 9.63723 20.8931 10.4169 21.318 11.1965C21.6822 11.9184 21.6215 12.5537 20.9235 13.0446C20.1041 13.6221 19.7703 14.3728 19.7703 15.3257C19.7703 16.0476 19.4061 16.5385 18.6474 16.6829C17.646 16.885 16.9176 17.4048 16.4928 18.2999C16.1589 18.9641 15.6127 19.2239 14.854 19.0796C14.6416 19.0218 14.3988 19.0218 14.156 18.9929C13.6705 18.9063 13.2456 18.9929 12.8207 19.2528C11.2427 20.2346 11.3034 20.2635 9.72533 19.2528C9.27012 18.9641 8.81491 18.9352 8.26866 18.9929C6.56921 19.2239 6.56921 19.1951 5.68914 17.7801C5.41601 17.347 5.0215 17.0583 4.50559 16.885C2.92753 16.3941 2.80614 16.5385 2.68475 14.7193C2.62406 14.1707 2.44198 13.7376 1.98677 13.4199C0.985306 12.698 0.71218 11.8607 1.31913 10.7923C1.71364 10.157 1.50121 9.49285 1.19774 8.91534C0.803222 8.07795 0.954958 7.41381 1.71364 6.86518C2.41163 6.34541 2.74545 5.68128 2.7151 4.87276C2.68475 4.00649 3.10962 3.42898 4.02003 3.2846C5.05184 3.11135 5.62844 2.44721 6.08365 1.63869C6.32643 1.1478 6.72094 0.859051 7.57067 0.945678ZM9.36116 14.0841C11.8294 11.7163 14.2774 9.36773 16.7052 7.03843C16.3714 6.69192 16.0072 6.31654 15.552 5.8834C13.4884 7.9047 11.4248 9.89711 9.30046 11.9762C8.42039 11.1099 7.63136 10.3302 6.87268 9.5506C6.44782 9.92599 6.08365 10.2725 5.71948 10.5901C6.93337 11.7451 8.14727 12.9291 9.36116 14.0841Z" fill="#5FB643"/>
</svg>
