<svg width="24" height="24" viewBox="0 0 24 24" fill="none" xmlns="http://www.w3.org/2000/svg">
<rect width="24" height="24" rx="12" fill="white"/>
<path d="M11.9803 5.16797C13.0476 5.16797 13.9346 5.20534 14.6541 5.35254C15.3826 5.50162 15.9833 5.77161 16.4344 6.26562C16.8803 6.75407 17.1291 7.40605 17.2713 8.21387C17.4132 9.02021 17.4578 10.0328 17.4578 11.2871C17.4578 11.7712 17.4581 12.226 17.4588 12.6523C17.4625 14.6686 17.4648 16.0549 17.3739 16.959C17.3196 17.4984 17.226 17.9563 17.0203 18.2852C16.9098 18.4619 16.7628 18.6085 16.5721 18.7061C16.3849 18.8018 16.1871 18.834 15.9979 18.834C15.5655 18.8339 15.1459 18.5965 14.8075 18.3613C14.477 18.1317 14.1296 17.8338 13.8006 17.5527C13.7746 17.5305 13.7483 17.5084 13.7225 17.4863C13.3593 17.1763 13.0182 16.8899 12.6981 16.6797C12.3661 16.4617 12.1324 16.378 11.9803 16.3779C11.8282 16.3779 11.5945 16.4617 11.2625 16.6797C10.9424 16.8898 10.6013 17.1764 10.2381 17.4863C10.2124 17.5083 10.186 17.5305 10.16 17.5527C9.83102 17.8339 9.48266 18.1317 9.15218 18.3613C8.81371 18.5965 8.39413 18.834 7.96175 18.834C7.77255 18.8339 7.57474 18.8018 7.38753 18.7061C7.19686 18.6085 7.04987 18.462 6.93929 18.2852C6.73364 17.9563 6.64002 17.4984 6.58578 16.959C6.49486 16.0549 6.49717 14.6686 6.50082 12.6523C6.50159 12.226 6.50277 11.7712 6.50277 11.2871C6.50277 10.0327 6.54737 9.02022 6.68929 8.21387C6.83149 7.40605 7.07936 6.75407 7.52523 6.26562C7.97636 5.77146 8.57698 5.50166 9.3055 5.35254C10.0251 5.20526 10.9127 5.16797 11.9803 5.16797ZM11.9803 6.16797C10.919 6.16797 10.1194 6.20764 9.50667 6.33301C8.90291 6.45657 8.52441 6.65462 8.26351 6.94043C7.99751 7.23203 7.79936 7.67284 7.67367 8.38672C7.54767 9.10253 7.50277 10.0425 7.50277 11.2871C7.50277 11.7829 7.50154 12.2448 7.50082 12.6748C7.49739 14.6916 7.49561 16.0098 7.58089 16.8584C7.63346 17.3811 7.71303 17.6366 7.78695 17.7549C7.81615 17.8016 7.8364 17.8118 7.84359 17.8154C7.85434 17.8209 7.88576 17.8339 7.96175 17.834C8.06089 17.834 8.2577 17.7653 8.58187 17.54C8.86922 17.3404 9.18005 17.0747 9.52132 16.7832C9.54347 16.7643 9.5663 16.7447 9.58871 16.7256C9.94468 16.4217 10.3326 16.094 10.7137 15.8438C11.0829 15.6014 11.5235 15.3779 11.9803 15.3779C12.4371 15.378 12.8777 15.6013 13.2469 15.8438C13.6281 16.094 14.0159 16.4217 14.3719 16.7256C14.3943 16.7447 14.4162 16.7643 14.4383 16.7832C14.7797 17.0748 15.0913 17.3403 15.3787 17.54C15.7025 17.765 15.8987 17.8339 15.9979 17.834C16.0746 17.834 16.1064 17.8209 16.117 17.8154C16.1243 17.8117 16.1437 17.8012 16.1727 17.7549C16.2466 17.6366 16.3271 17.3814 16.3797 16.8584C16.465 16.0098 16.4622 14.6916 16.4588 12.6748C16.4581 12.2448 16.4578 11.7829 16.4578 11.2871C16.4578 10.0425 16.412 9.10253 16.286 8.38672C16.1602 7.67265 15.9623 7.23202 15.6961 6.94043C15.4352 6.65463 15.0577 6.45657 14.4539 6.33301C13.8412 6.2076 13.0416 6.16797 11.9803 6.16797ZM14.2645 9.64648C14.5406 9.64648 14.7645 9.87034 14.7645 10.1465C14.7643 10.4225 14.5405 10.6465 14.2645 10.6465H9.69515C9.41913 10.6465 9.19535 10.4225 9.19515 10.1465C9.19515 9.87034 9.41901 9.64648 9.69515 9.64648H14.2645Z" fill="#303030"/>
</svg>
