<svg width="25" height="26" viewBox="0 0 25 26" fill="none" xmlns="http://www.w3.org/2000/svg">
<path d="M0.00501672 25.9456L1.69502 19.5138C0.581439 17.5367 -0.00361329 15.2881 1.67903e-05 12.9992C1.67903e-05 5.84885 5.59626 0.0527344 12.5 0.0527344C19.4038 0.0527344 25 5.84885 25 12.9992C25 20.1495 19.4038 25.9456 12.5 25.9456C10.291 25.9493 8.12083 25.3438 6.21251 24.1913L0.00501672 25.9456ZM7.98876 6.92469C7.82734 6.93508 7.6696 6.97911 7.52501 7.05416C7.38941 7.13369 7.26563 7.23311 7.15751 7.34934C7.00751 7.49563 6.92251 7.62251 6.83126 7.7455C6.36928 8.36821 6.12077 9.1326 6.12501 9.91791C6.12751 10.5523 6.28751 11.1698 6.53751 11.7472C7.04876 12.915 7.89001 14.1514 9.00126 15.2971C9.26876 15.5729 9.53001 15.85 9.81126 16.1076C11.1905 17.3653 12.8341 18.2723 14.6113 18.7564L15.3225 18.8691C15.5538 18.882 15.785 18.8639 16.0175 18.8522C16.3816 18.8328 16.737 18.7307 17.0588 18.5532C17.2663 18.4392 17.3638 18.3823 17.5375 18.2683C17.5375 18.2683 17.5913 18.2321 17.6938 18.1518C17.8625 18.0224 17.9663 17.9304 18.1063 17.779C18.21 17.6676 18.3 17.5369 18.3688 17.388C18.4663 17.177 18.5638 16.7743 18.6038 16.439C18.6338 16.1827 18.625 16.0429 18.6213 15.9561C18.6163 15.8176 18.505 15.6739 18.3838 15.613L17.6563 15.2751C17.6563 15.2751 16.5688 14.7845 15.905 14.4712C15.835 14.4396 15.76 14.4216 15.6838 14.4181C15.5982 14.409 15.5118 14.419 15.4303 14.4473C15.3488 14.4757 15.2741 14.5218 15.2113 14.5825V14.5799C15.205 14.5799 15.1213 14.6537 14.2175 15.7878C14.1656 15.86 14.0942 15.9146 14.0123 15.9445C13.9303 15.9745 13.8417 15.9785 13.7575 15.9561C13.6761 15.9336 13.5963 15.905 13.5188 15.8707C13.3638 15.8034 13.31 15.7775 13.2038 15.7296L13.1975 15.727C12.4824 15.4036 11.8203 14.9668 11.235 14.4323C11.0775 14.2899 10.9313 14.1346 10.7813 13.9844C10.2895 13.4966 9.8609 12.9448 9.50626 12.3428L9.43251 12.2198C9.37954 12.1371 9.33671 12.048 9.30501 11.9544C9.25751 11.7641 9.38126 11.6113 9.38126 11.6113C9.38126 11.6113 9.68501 11.2669 9.82626 11.0805C9.94387 10.9256 10.0536 10.7644 10.155 10.5976C10.3025 10.3516 10.3488 10.0992 10.2713 9.90367C9.92126 9.01813 9.55876 8.13648 9.18626 7.2613C9.11251 7.08782 8.89376 6.96353 8.69501 6.93894C8.62751 6.93117 8.56001 6.9234 8.49251 6.91822C8.32464 6.90958 8.15643 6.91261 7.98876 6.92469Z" fill="white"/>
</svg>
