<svg width="44" height="44" viewBox="0 0 44 44" fill="none" xmlns="http://www.w3.org/2000/svg">
<path d="M21.519 0C9.64051 0 0 9.64051 0 21.519C0 33.3975 9.64051 43.038 21.519 43.038C33.3975 43.038 43.038 33.3975 43.038 21.519C43.038 9.64051 33.3975 0 21.519 0ZM21.519 38.7342C12.0291 38.7342 4.3038 31.0089 4.3038 21.519C4.3038 12.0291 12.0291 4.3038 21.519 4.3038C31.0089 4.3038 38.7342 12.0291 38.7342 21.519C38.7342 31.0089 31.0089 38.7342 21.519 38.7342ZM9.68355 33.3544L25.8443 25.8443L33.3544 9.68355L17.1937 17.1937L9.68355 33.3544ZM21.519 19.1519C22.8316 19.1519 23.8861 20.2063 23.8861 21.519C23.8861 22.8316 22.8316 23.8861 21.519 23.8861C20.2063 23.8861 19.1519 22.8316 19.1519 21.519C19.1519 20.2063 20.2063 19.1519 21.519 19.1519Z" fill="white"/>
</svg>
